# xmcd
#
# Track frame offsets: 
#        150
#        6734
#        29485
#        49218
#        70062
#        93581
#        112662
#        129200
#        147478
#        162486
#
# Disc length: 2440 seconds
#
# Revision: 0
# Processed by: cddbd v1.5.2PL0 Copyright (c) Steve Scherf et al.
# Submitted via: ExactAudioCopyFreeDBPlugin 1.0
#
DISCID=8a09860a
DTITLE=Emil Friis - The Road To Nashville
DYEAR=2010
DGENRE=Country
TTITLE0=I Tried To Tell You Why
TTITLE1=The Road To Nashville
TTITLE2=Time Changes Everything
TTITLE3=Rolling Seas
TTITLE4=Everything's Ruined
TTITLE5=Birdy Blues
TTITLE6=Lions
TTITLE7=A Smiling Face
TTITLE8=Paper Moon
TTITLE9=These Two Hands
EXTD=
EXTT0=
EXTT1=
EXTT2=
EXTT3=
EXTT4=
EXTT5=
EXTT6=
EXTT7=
EXTT8=
EXTT9=
PLAYORDER=
